<?xml version="1.0" encoding="UTF-8"?> <svg xmlns="http://www.w3.org/2000/svg" viewBox="0 0 200.51 203.32"><g transform="translate(.01)"><path d="m2.62 124.72c3.64 16.39 11.52 30.76 21.71 43.28q38-52 75.91-104.24 37.88 52.24 75.76 104.53c10.74-12.23 18-27.17 21.9-43.55q-48.9-41.84-97.65-83.74-48.82 41.83-97.63 83.72z" fill="#fff"></path><path d="m24.33 168a99.71 99.71 0 0 0 69.51 35.14h.53.84c1.64.08 3.28.13 4.92.12q2.79 0 5.58-.18c1.53-.07 3.06-.19 4.58-.34l.82-.08.83-.1a100.28 100.28 0 0 0 64.06-34.27q-37.88-52.29-75.76-104.54-37.86 52.25-75.91 104.25z" fill="#979695"></path><path d="m184.59 46.65a100.69 100.69 0 0 0 -56.9-42.8 99.53 99.53 0 0 0 -19.12-3.5h-.36q-1.33-.11-2.67-.18h-.57c-1 0-2-.08-3.05-.1a99.54 99.54 0 0 0 -37.66 6.68l-.81.31c-1 .4-2 .82-3 1.25l-.79.33-.59.28c-1.12.52-2.23 1-3.33 1.6l-.5.25q-1.88 1-3.71 2l-.28.16q-1.76 1-3.48 2.07h-.07a101.34 101.34 0 0 0 -38.83 44.72 103.11 103.11 0 0 0 -6.25 65q48.81-41.89 97.63-83.72 48.75 41.9 97.66 83.74a103.29 103.29 0 0 0 -13.32-78.09z" fill="#f14841"></path></g></svg> 